# xmcd
#
# Track frame offsets:
#	150
#	18467
#	36080
#	55602
#	73022
#	89430
#	107462
#	126992
#	144902
#	164125
#	179270
#	196057
#	213617
#	233292
#	251052
#
# Disc length: 3607 seconds
#
# Revision: 2
# Processed by: cddbd v1.5.1PL2 Copyright (c) Steve Scherf et al.
# Submitted via: audiograbber 1.83.01
#
DISCID=cd0e150f
DTITLE=Various Artist - SC 8241 Yesterday's Country Vol 10
DYEAR=1994
DGENRE=Karaoke
TTITLE0=Billy Dean - Tryin' To Hide A Fire In The Dark
TTITLE1=Joe Diffie - Ships That Don't Come In
TTITLE2=Brooks and Dunn - Lost And Found
TTITLE3=Ricky Van Shelton - Where Was I
TTITLE4=Blackhawk - Goodbye Says It All
TTITLE5=George Strait - So Much Like My Dad
TTITLE6=Lorrie Morgan - I Guess You Had To Be There
TTITLE7=Garth Brooks - Ain't Going Down (Til The Sun Comes Up)
TTITLE8=Willie Nelson and Ray Charles - Seven Spanish Angels
TTITLE9=Randy Travis - Look Heart, No hands
TTITLE10=Martina Mcbride - Life # 9
TTITLE11=Rodney Crowell - Big Heart
TTITLE12=Travis Tritt - Help Me Hold On
TTITLE13=Reba McEntire - 'Til Love Comes Again
TTITLE14=Hal Ketchum - Mama Knows The Highway
EXTD=
EXTT0=
EXTT1=
EXTT2=
EXTT3=
EXTT4=
EXTT5=
EXTT6=
EXTT7=
EXTT8=
EXTT9=
EXTT10=
EXTT11=
EXTT12=
EXTT13=
EXTT14=
PLAYORDER=
